<svg id="Lager_1" data-name="Lager 1" xmlns="http://www.w3.org/2000/svg" viewBox="0 0 139.95 153.25"><defs><style>.cls-1{fill:#3ba7df;}</style></defs><g id="Group_2" data-name="Group 2"><path id="Path_8" data-name="Path 8" class="cls-1" d="M156.88,49.39A45.58,45.58,0,0,0,96.67,14.06a8.49,8.49,0,0,1,3.4-.26c.55,0,1.11.12,1.67.2l.1,0q.78.12,1.53.27l.23,0,1.51.3.84.17.36.07a49.94,49.94,0,0,1,17.86,6.68c.77.49,1.53,1,2.28,1.54A42.61,42.61,0,0,1,143.24,58.9c-.3,10-4.54,19-9.48,27.45-5.43,9.31-9.41,16.5-9.65,27.61-.12,5.67.42,11.42-.52,17-.6,3.64-2.37,9.51-5.31,12a2.86,2.86,0,0,1-3.49.32,3.73,3.73,0,0,1-1-1.43c-3-6.56-1.85-14.07-4-20.87q-.28-.94-.63-1.83l-.26-.62c-.16-.39-.31-.75-.48-1.11s-.24-.49-.36-.73-.3-.6-.46-.9l-.44-.76c-.16-.26-.31-.52-.48-.77s-.34-.52-.52-.77-.3-.43-.46-.64-.41-.52-.62-.77-.29-.34-.45-.51-.47-.53-.71-.77l-.39-.37q-.42-.42-.87-.81l-.19-.15a21.17,21.17,0,0,0-8.44-4.3h0q-.81-.21-1.65-.36h0a27.12,27.12,0,0,0-5-.46A14.67,14.67,0,0,1,102,119.06h0v37.66A7.93,7.93,0,0,0,115.87,162l5.14-5.75a50.72,50.72,0,0,0,12.92-33.82,54.91,54.91,0,0,1,12.63-35.75A45.58,45.58,0,0,0,156.88,49.39Z" transform="translate(-17.58 -11.41)"/><path id="Path_9" data-name="Path 9" class="cls-1" d="M60.19,145.81a16.43,16.43,0,0,1-1.43-2.09c-2.88-5-2.61-10.93-3.13-16.66a150,150,0,0,0-5.91-31.22C43.35,75.56,32.38,51.63,51,34.12c15-14,36.4-7.17,54.28-5.06l15,1.72a255.78,255.78,0,0,1-23.7-9.91c-12.94-6.08-27.65-11.28-42.1-8.68C21.11,18.19,6.14,59.88,27.53,86a57.58,57.58,0,0,1,13.25,36.49A50.72,50.72,0,0,0,53.7,156.26L58.84,162a7.93,7.93,0,0,0,13.84-5.28V119.06a14.58,14.58,0,0,1,2.76-8.55C65.31,116.5,68.87,156.49,60.19,145.81Z" transform="translate(-17.58 -11.41)"/></g></svg>