<svg id="Lager_1" data-name="Lager 1" xmlns="http://www.w3.org/2000/svg" viewBox="0 0 36 60"><defs><style>.cls-1{fill:#fff;}</style></defs><g id="Group_34" data-name="Group 34"><g id="Group_31" data-name="Group 31"><g id="Group_30" data-name="Group 30"><path id="Path_28" data-name="Path 28" class="cls-1" d="M34.38,7.34a9.22,9.22,0,0,0-3.66.75,12.79,12.79,0,0,1-10.08,0,9.31,9.31,0,0,0-13,8.55A25.18,25.18,0,0,0,10.3,27.81l1.42,4.82a1,1,0,0,0,1,.71h3v5a1,1,0,0,0,1,1h3v2.33l-2.89-.32-.22,2,3.11.35v4l-2.89-.32-.22,2,3.11.35v4l-2.89-.32-.22,2,3.11.35v4l-2.89-.32-.22,2,3.18.36v0l2,5a1,1,0,0,0,.93.63h6a1,1,0,0,0,.93-.63L31.11,63l3.46.38.22-2L31.68,61V57l2.89.32.22-2L31.68,55V51l2.89.32.22-2L31.68,49V45l2.89.32.22-2L31.68,43V39.34h3a1,1,0,0,0,1-1v-5h3a1,1,0,0,0,1-.72l1.42-4.81a25.21,25.21,0,0,0,2.62-11.17A9.3,9.3,0,0,0,34.38,7.34ZM28,65.34H23.36L22,61.94l7.05.78Zm1.68-4.56-8-.89v-4l8,.89Zm0-6-8-.89v-4l8,.89Zm0-6-8-.89v-4l8,.89Zm0-6-8-.89V39.34h8Zm4-5.44h-16v-4h16ZM39.23,27l-.06.17-1.24,4.18H13.43l-1.24-4.18L12.13,27A23.11,23.11,0,0,1,9.68,16.64,7.3,7.3,0,0,1,19.85,9.93a14.85,14.85,0,0,0,11.66,0,7.3,7.3,0,0,1,10.17,6.71A23.23,23.23,0,0,1,39.24,27Z" transform="translate(-7.68 -7.34)"/></g></g><g id="Group_33" data-name="Group 33"><g id="Group_32" data-name="Group 32"><path id="Path_29" data-name="Path 29" class="cls-1" d="M15.18,11.47a6.58,6.58,0,0,0-3.5,5.67v1.2h2v-1.2a4.62,4.62,0,0,1,2.5-3.93Z" transform="translate(-7.68 -7.34)"/></g></g></g></svg>