<svg id="Lager_1" data-name="Lager 1" xmlns="http://www.w3.org/2000/svg" viewBox="0 0 50 60"><defs><style>.cls-1{fill:#fff;}</style></defs><g id="Group_57" data-name="Group 57"><g id="Group_36" data-name="Group 36"><g id="Group_35" data-name="Group 35"><path id="Path_30" data-name="Path 30" class="cls-1" d="M53.38,10.82h-3.6A32.36,32.36,0,0,1,30,4a1,1,0,0,0-1.23,0A32.36,32.36,0,0,1,9,10.82H5.38a1,1,0,0,0-1,1v10.7A46.79,46.79,0,0,0,28.91,63.7a1,1,0,0,0,.95,0A46.78,46.78,0,0,0,54.38,22.53V11.83a1,1,0,0,0-1-1Zm-1,11.7a44.78,44.78,0,0,1-23,39.16,44.79,44.79,0,0,1-23-39.15v-9.7H9a34.43,34.43,0,0,0,20.4-6.75,34.47,34.47,0,0,0,20.4,6.75h2.6v9.7Z" transform="translate(-4.38 -3.82)"/></g></g><g id="Group_38" data-name="Group 38"><g id="Group_37" data-name="Group 37"><path id="Path_31" data-name="Path 31" class="cls-1" d="M38.08,13.82a9.58,9.58,0,0,0-3.66.75,12.79,12.79,0,0,1-10.08,0,9.31,9.31,0,0,0-13,8.55,16.94,16.94,0,0,0,1.76,7.46l2.29,4.56L18,48.62a3.92,3.92,0,0,0,7.74-.24L27,37.92a2.4,2.4,0,0,1,4.76,0l1.31,10.46a3.92,3.92,0,0,0,7.74.24l2.53-13.48,2.28-4.56a16.67,16.67,0,0,0,1.76-7.46,9.3,9.3,0,0,0-9.3-9.3Zm5.75,15.87h0l-2.34,4.69a1.14,1.14,0,0,0-.09.26L38.85,48.26a1.92,1.92,0,0,1-3.79-.12L33.75,37.68a4.4,4.4,0,0,0-8.73,0L23.71,48.14a1.92,1.92,0,0,1-3.79.12L17.36,34.64a.79.79,0,0,0-.08-.26l-2.35-4.69a15,15,0,0,1-1.55-6.57,7.3,7.3,0,0,1,7.3-7.3,7.23,7.23,0,0,1,2.87.59,14.85,14.85,0,0,0,11.66,0,7.3,7.3,0,0,1,10.17,6.71,14.69,14.69,0,0,1-1.55,6.57Z" transform="translate(-4.38 -3.82)"/></g></g><g id="Group_40" data-name="Group 40"><g id="Group_39" data-name="Group 39"><path id="Path_32" data-name="Path 32" class="cls-1" d="M18.83,18a7.72,7.72,0,0,0-3.45,6.44v1.39h2V24.43a5.75,5.75,0,0,1,2.56-4.78Z" transform="translate(-4.38 -3.82)"/></g></g><g id="Group_42" data-name="Group 42"><g id="Group_41" data-name="Group 41"><rect id="Rectangle_8" data-name="Rectangle 8" class="cls-1" x="24" y="7" width="2" height="2"/></g></g><g id="Group_44" data-name="Group 44"><g id="Group_43" data-name="Group 43"><rect id="Rectangle_9" data-name="Rectangle 9" class="cls-1" x="44" y="11" width="2" height="2"/></g></g><g id="Group_46" data-name="Group 46"><g id="Group_45" data-name="Group 45"><rect id="Rectangle_10" data-name="Rectangle 10" class="cls-1" x="4" y="11" width="2" height="2"/></g></g><g id="Group_48" data-name="Group 48"><g id="Group_47" data-name="Group 47"><rect id="Rectangle_11" data-name="Rectangle 11" class="cls-1" x="40" y="37" width="2" height="2"/></g></g><g id="Group_50" data-name="Group 50"><g id="Group_49" data-name="Group 49"><rect id="Rectangle_12" data-name="Rectangle 12" class="cls-1" x="5" y="25" width="2" height="2"/></g></g><g id="Group_52" data-name="Group 52"><g id="Group_51" data-name="Group 51"><rect id="Rectangle_13" data-name="Rectangle 13" class="cls-1" x="24" y="52" width="2" height="2"/></g></g><g id="Group_54" data-name="Group 54"><g id="Group_53" data-name="Group 53"><rect id="Rectangle_14" data-name="Rectangle 14" class="cls-1" x="43" y="25" width="2" height="2"/></g></g><g id="Group_56" data-name="Group 56"><g id="Group_55" data-name="Group 55"><rect id="Rectangle_15" data-name="Rectangle 15" class="cls-1" x="8" y="37" width="2" height="2"/></g></g></g></svg>