<svg id="Lager_1" data-name="Lager 1" xmlns="http://www.w3.org/2000/svg" viewBox="0 0 60 60"><defs><style>.cls-1{fill:#fff;}</style></defs><g id="Group_29" data-name="Group 29"><g id="Group_18" data-name="Group 18"><g id="Group_17" data-name="Group 17"><path id="Path_22" data-name="Path 22" class="cls-1" d="M26.45,25.27A7.76,7.76,0,0,0,23,31.74v1.4h2v-1.4a5.74,5.74,0,0,1,2.55-4.8Z" transform="translate(-7.01 -6.3)"/></g></g><g id="Group_20" data-name="Group 20"><g id="Group_19" data-name="Group 19"><path id="Path_23" data-name="Path 23" class="cls-1" d="M65.3,10.32,48,27.7l-2.59-2.6L62.71,7.72,61.3,6.3,43.46,24.22l-11.77,4a1,1,0,0,0-.64,1.27,1.08,1.08,0,0,0,.25.39l12,12.06a1,1,0,0,0,1.41,0A1.06,1.06,0,0,0,45,41.5l3.93-11.84L66.71,11.74Zm-21.73,29L41.29,37l3.55-5.34-1.66-1.12-3.33,5-2.27-2.29,5-3.33-1.11-1.67-5.31,3.56-2.28-2.29,9.88-3.31,3.13,3.14Z" transform="translate(-7.01 -6.3)"/></g></g><g id="Group_22" data-name="Group 22"><g id="Group_21" data-name="Group 21"><path id="Path_24" data-name="Path 24" class="cls-1" d="M66.28,42.22l-9.7-2.78a6.29,6.29,0,0,0-3.67.07A25.58,25.58,0,0,0,55,29.42,10.14,10.14,0,0,0,54.9,28l-2,.31A7.43,7.43,0,0,1,53,29.42a23.52,23.52,0,0,1-2.45,10.41l-1.45,2.91a1.33,1.33,0,0,0-.1.34L47.29,58.62a1.84,1.84,0,0,1-3.66.07L41.44,44a4.48,4.48,0,0,0-8.87,0L30.38,58.69a1.84,1.84,0,0,1-3.66-.07L25,43.08a1,1,0,0,0-.1-.34l-1.45-2.92A23.44,23.44,0,0,1,21,29.42a7.3,7.3,0,0,1,7.27-7.33,7.44,7.44,0,0,1,2.9.59,14.76,14.76,0,0,0,11.66,0l-.79-1.85a12.79,12.79,0,0,1-10.08,0,9.29,9.29,0,0,0-12.19,4.88l0,0A9.27,9.27,0,0,0,19,29.42a25.37,25.37,0,0,0,2.1,10.09,6.29,6.29,0,0,0-3.67-.07l-9.7,2.79a1,1,0,0,0-.73,1V65.3a1,1,0,0,0,1,1H66a1,1,0,0,0,1-1h0V43.19A1,1,0,0,0,66.28,42.22ZM65,64.29H9V44l9-2.58A4.39,4.39,0,0,1,23,43.51l1.7,15.33a3.84,3.84,0,0,0,7.62.15l2.2-14.68a2.48,2.48,0,0,1,4.91,0L41.66,59a3.85,3.85,0,0,0,7.63-.15L51,43.51a4.38,4.38,0,0,1,5-2.14L65,44Z" transform="translate(-7.01 -6.3)"/></g></g><g id="Group_24" data-name="Group 24"><g id="Group_23" data-name="Group 23"><path id="Path_25" data-name="Path 25" class="cls-1" d="M58.31,35.75a29.31,29.31,0,0,0,.7-6.33,13.36,13.36,0,0,0-1.3-5.76l-1.8.87A11.35,11.35,0,0,1,57,29.42a27.3,27.3,0,0,1-.86,6.79,1,1,0,0,0,.72,1.22l9.42,2.7.55-1.93Z" transform="translate(-7.01 -6.3)"/></g></g><g id="Group_26" data-name="Group 26"><g id="Group_25" data-name="Group 25"><path id="Path_26" data-name="Path 26" class="cls-1" d="M40.47,17.13a8.78,8.78,0,0,1-6.93,0,13.27,13.27,0,0,0-17.43,7l0,.06A13.41,13.41,0,0,0,15,29.42a29.39,29.39,0,0,0,.69,6.34L7.17,38.2l.55,1.93,9.16-2.63.26-.07a1,1,0,0,0,.73-1.22h0A27.3,27.3,0,0,1,17,29.42a11.33,11.33,0,0,1,11.3-11.35,11.19,11.19,0,0,1,4.45.92,10.82,10.82,0,0,0,8.5,0,11.25,11.25,0,0,1,5.64-.86l.21-2A13.37,13.37,0,0,0,40.47,17.13Z" transform="translate(-7.01 -6.3)"/></g></g><g id="Group_28" data-name="Group 28"><g id="Group_27" data-name="Group 27"><path id="Path_27" data-name="Path 27" class="cls-1" d="M20,14.88a1,1,0,0,0-.82-.82A3.89,3.89,0,0,1,16,10.87a1,1,0,0,0-1.15-.82,1,1,0,0,0-.82.82,3.88,3.88,0,0,1-3.18,3.19,1,1,0,0,0,0,2A3.88,3.88,0,0,1,14,19.24a1,1,0,0,0,2,0A3.89,3.89,0,0,1,19.17,16,1,1,0,0,0,20,14.89Zm-5,1.6a5.89,5.89,0,0,0-1.43-1.43A5.76,5.76,0,0,0,15,13.61a5.76,5.76,0,0,0,1.43,1.44A5.76,5.76,0,0,0,15,16.49Z" transform="translate(-7.01 -6.3)"/></g></g></g></svg>