<svg id="Lager_1" data-name="Lager 1" xmlns="http://www.w3.org/2000/svg" viewBox="0 0 60 60"><defs><style>.cls-1{fill:#fff;}</style></defs><g id="Group_16" data-name="Group 16"><g id="Group_9" data-name="Group 9"><g id="Group_8" data-name="Group 8"><path id="Path_18" data-name="Path 18" class="cls-1" d="M32.31,36.57l-3.12,1.25a2.07,2.07,0,0,1-2.69-1.17A2.05,2.05,0,0,1,26.57,35l.68-1.38a2,2,0,0,0-.37-2.31L22.09,26.5l1.3-1.29a1,1,0,0,0,0-1.42l-3.3-3.29.3-.29a1,1,0,0,0,0-1.4l-9-9.53a1,1,0,0,0-1.42,0,1,1,0,0,0-.31.73V23a1,1,0,0,0,.36.76l3,2.54a1,1,0,0,0,1.35-.06l.29-.3L18,29.2a1,1,0,0,0,1.42,0l1.29-1.29,4.78,4.78-.68,1.37a4.07,4.07,0,0,0,5.16,5.6l3.12-1.24ZM14,23.8l-.35.35L11.68,22.5v-10l6.61,7L18,19.8Zm4.71,3.29L16.09,24.5l2.59-2.59,2.59,2.59Z" transform="translate(-9.68 -8.97)"/></g></g><g id="Group_11" data-name="Group 11"><g id="Group_10" data-name="Group 10"><path id="Path_19" data-name="Path 19" class="cls-1" d="M69.06,38a1,1,0,0,0-1.09.22l-14,14a1,1,0,0,0,0,1.41l.8.8-3.93,3.92A9.67,9.67,0,0,0,45.68,57c-4.41,0-8,2.69-8,6s3.59,6,8,6,8-2.69,8-6a4.94,4.94,0,0,0-1.31-3.28l3.81-3.81.79.8a1,1,0,0,0,1.42,0l11-11a1,1,0,0,0,.29-.71V39A1,1,0,0,0,69.06,38ZM45.68,67c-3.25,0-6-1.83-6-4s2.75-4,6-4,6,1.83,6,4S48.94,67,45.68,67Zm22-22.42-10,10L56.09,53,67.68,41.38Z" transform="translate(-9.68 -8.97)"/></g></g><g id="Group_13" data-name="Group 13"><g id="Group_12" data-name="Group 12"><path id="Path_20" data-name="Path 20" class="cls-1" d="M44.16,42.76a4.54,4.54,0,0,0-9,0l-3,18.13a2.49,2.49,0,0,1-4.92-.07l-2.59-19a1.12,1.12,0,0,0-.14-.4L24,40.54a28.44,28.44,0,0,1-3.61-8.8l-1.95.43a30.39,30.39,0,0,0,3.87,9.43l.44.71,2.56,18.77a4.49,4.49,0,0,0,8.88.13l3-18.12a2.54,2.54,0,0,1,5,0l2,12,2-.33Z" transform="translate(-9.68 -8.97)"/></g></g><g id="Group_15" data-name="Group 15"><g id="Group_14" data-name="Group 14"><path id="Path_21" data-name="Path 21" class="cls-1" d="M49.06,13a12.48,12.48,0,0,0-5,1,11.28,11.28,0,0,1-8.83,0,12.6,12.6,0,0,0-14.33,3.13l1.48,1.35a10.63,10.63,0,0,1,12.06-2.65,13.23,13.23,0,0,0,10.4,0,10.61,10.61,0,0,1,14.8,9.76,28.1,28.1,0,0,1-4.29,15l-.55.89a1,1,0,0,0-.15.4l-.82,6,2,.27.79-5.79.44-.71a30.18,30.18,0,0,0,4.6-16A12.62,12.62,0,0,0,49.07,13Z" transform="translate(-9.68 -8.97)"/></g></g></g></svg>