<svg id="Lager_1" data-name="Lager 1" xmlns="http://www.w3.org/2000/svg" viewBox="0 0 60 60.07"><defs><style>.cls-1{fill:#fff;}</style></defs><g id="tooth_icon" data-name="tooth icon"><path id="Path_10" data-name="Path 10" class="cls-1" d="M50.09,12.54a10,10,0,1,0,10,10,10,10,0,0,0-10-10Zm0,18a8,8,0,1,1,8-8,8,8,0,0,1-8,8Z" transform="translate(-12.09 -8.38)"/><path id="Path_11" data-name="Path 11" class="cls-1" d="M71.8,38.79l-9.48-9.47A14.06,14.06,0,1,0,58.13,34l9.26,9.24a1,1,0,0,0,1.41,0l3-3A1,1,0,0,0,71.8,38.79ZM50.09,34.51a12,12,0,1,1,12-12A12,12,0,0,1,50.09,34.51Zm18,6.57-8.41-8.4A14,14,0,0,0,61.19,31l8.49,8.47Z" transform="translate(-12.09 -8.38)"/><path id="Path_12" data-name="Path 12" class="cls-1" d="M53.62,44.36l-.37.6a.93.93,0,0,0-.13.31L48.76,64.39a2.65,2.65,0,0,1-5.19-.15l-3-18a4.54,4.54,0,0,0-9,0l-3,18a2.65,2.65,0,0,1-5.19.15L19.07,45.26a1.2,1.2,0,0,0-.13-.31l-.38-.6a29.32,29.32,0,0,1-4.47-15.56A12.3,12.3,0,0,1,26.4,16.53a12.53,12.53,0,0,1,4.8,1,12.51,12.51,0,0,0,3.44.92l.24-2A10.65,10.65,0,0,1,32,15.69a14.26,14.26,0,0,0-19.9,13.1,31.31,31.31,0,0,0,4.78,16.62l.28.46,4.32,19a4.65,4.65,0,0,0,9.12-.27l3-18a2.54,2.54,0,0,1,5,0l3,18a4.65,4.65,0,0,0,9.12.27l4.31-19,.29-.46A31.4,31.4,0,0,0,59,37l-1.93-.52A29.46,29.46,0,0,1,53.62,44.36Z" transform="translate(-12.09 -8.38)"/><path id="Path_13" data-name="Path 13" class="cls-1" d="M17.09,28.51h2c0-5.06,4-6,4.2-6l-.2-1-.2-1C20.89,21,17.09,23.13,17.09,28.51Z" transform="translate(-12.09 -8.38)"/><rect id="Rectangle_7" data-name="Rectangle 7" class="cls-1" x="13" y="12.15" width="2" height="2"/><path id="Path_14" data-name="Path 14" class="cls-1" d="M50.39,16.82l-5.5,5.49,1.41,1.42,5.5-5.49Z" transform="translate(-12.09 -8.38)"/><path id="Path_15" data-name="Path 15" class="cls-1" d="M54.39,19.82l-7,7,1.41,1.41,7-7Z" transform="translate(-12.09 -8.38)"/></g></svg>