<svg id="Lager_1" data-name="Lager 1" xmlns="http://www.w3.org/2000/svg" viewBox="0 0 60 59.99"><defs><style>.cls-1{fill:#fff;}</style></defs><g id="Group_3" data-name="Group 3"><g id="Group_4" data-name="Group 4"><g id="Group_3-2" data-name="Group 3-2"><path id="Path_16" data-name="Path 16" class="cls-1" d="M72.83,41.28l-10.66-3a5.2,5.2,0,0,0-3.26.15l.6-1.38,2.11-2.2a25.08,25.08,0,0,0,5.83-9.92,9.24,9.24,0,0,0-6.13-11.54h0A9.49,9.49,0,0,0,57.57,13a12.87,12.87,0,0,1-9.64-2.94,9.35,9.35,0,0,0-13.11,1.1A9.07,9.07,0,0,0,33,14.44a25,25,0,0,0-.76,11.47l.5,3L30.62,40.3a5.22,5.22,0,0,0-5.69-2l-10.65,3a1,1,0,0,0-.73.95V66.91a1,1,0,0,0,1,1h58a1,1,0,0,0,1-1V42.23A1,1,0,0,0,72.83,41.28Zm-40.93,3,2.88-15.2a1,1,0,0,0,0-.35l-.53-3.18A23,23,0,0,1,35,15a7.32,7.32,0,0,1,9.18-4.79,7.49,7.49,0,0,1,2.51,1.37A14.87,14.87,0,0,0,57.78,15a7.3,7.3,0,0,1,8,6.45,7.13,7.13,0,0,1-.28,2.9,23,23,0,0,1-5.37,9.13l-2.23,2.33a.94.94,0,0,0-.2.29L51.56,50.3a1.85,1.85,0,0,1-3.52-1l2.19-14.52a4.49,4.49,0,0,0-4.42-5.12,4.55,4.55,0,0,0-4.07,2.53L35.37,45.44a1.86,1.86,0,0,1-2.47.87A1.84,1.84,0,0,1,31.9,44.3Zm15.31-2.92a10.52,10.52,0,0,1-7.51-.32l3.85-8a2.5,2.5,0,0,1,3.31-1.18,2.46,2.46,0,0,1,1.39,2.6h0ZM31.55,47.8a3.83,3.83,0,0,0,5.3-.93,4,4,0,0,0,.33-.57l1.66-3.45a12.31,12.31,0,0,0,8,.7L46.07,49a3.84,3.84,0,0,0,7.33,2.08l2.15-4.94v12.7A3.18,3.18,0,0,1,49.43,60l-2.21-5.45a4,4,0,0,0-7.34,0L37.68,60a3.19,3.19,0,0,1-6.13-1.16v-11Zm40,18.11h-56V43l9.93-2.8a3.22,3.22,0,0,1,3.74,1.62,3.13,3.13,0,0,1,.33,1.4V58.83a5.19,5.19,0,0,0,10,1.9l2.21-5.44a2,2,0,0,1,3.63,0l2.21,5.44a5.18,5.18,0,0,0,10-1.9V43.21a3.08,3.08,0,0,1,.34-1.4,3.22,3.22,0,0,1,3.74-1.62L71.55,43Z" transform="translate(-13.55 -7.91)"/></g></g><g id="Group_6" data-name="Group 6"><g id="Group_5" data-name="Group 5"><path id="Path_17" data-name="Path 17" class="cls-1" d="M41.36,12.68a7.71,7.71,0,0,0-5.18,5.11l-.41,1.33,1.92.58.41-1.32a5.69,5.69,0,0,1,3.84-3.8Z" transform="translate(-13.55 -7.91)"/></g></g></g></svg>